<svg xmlns="http://www.w3.org/2000/svg" width="24" height="24" viewBox="0 0 24 24"><defs><style>.a,.b{fill:none;}.a{stroke:#e81930;stroke-linecap:round;stroke-linejoin:round;stroke-width:2px;}</style></defs><g transform="translate(-868 -537.5)"><path class="a" d="M3,82V76a9,9,0,1,1,18,0v6" transform="translate(868 473.5)"/><path class="a" d="M21,83a2,2,0,0,1-2,2H18a2,2,0,0,1-2-2V80a2,2,0,0,1,2-2h3ZM3,83a2,2,0,0,0,2,2H6a2,2,0,0,0,2-2V80a2,2,0,0,0-2-2H3Z" transform="translate(868 473.5)"/></g><rect class="b" width="24" height="24"/></svg>